<mxfile host="app.diagrams.net" modified="2024-02-18T18:46:04.048Z" agent="Mozilla/5.0 (Macintosh; Intel Mac OS X 10_15_7) AppleWebKit/537.36 (KHTML, like Gecko) Chrome/121.0.0.0 Safari/537.36" etag="qWVk5J_-IGnol6YfevHu" version="23.1.5" type="google">
  <diagram name="PÃ¡gina-1" id="_Wb3eKxZTt5TNscj-Awv">
    <mxGraphModel grid="1" page="1" gridSize="10" guides="1" tooltips="1" connect="1" arrows="1" fold="1" pageScale="1" pageWidth="827" pageHeight="1169" math="0" shadow="0">
      <root>
        <mxCell id="0" />
        <mxCell id="1" parent="0" />
        <mxCell id="XA0mJjuyiel9CvAW2BMo-2" value="CRM" style="swimlane;whiteSpace=wrap;html=1;" vertex="1" parent="1">
          <mxGeometry x="820" y="190" width="180" height="130" as="geometry" />
        </mxCell>
        <mxCell id="XA0mJjuyiel9CvAW2BMo-3" value="" style="shape=image;verticalLabelPosition=bottom;labelBackgroundColor=default;verticalAlign=top;aspect=fixed;imageAspect=0;image=data:image/png,iVBORw0KGgoAAAANSUhEUgAAAbwAAABxCAMAAACZb+YzAAAAllBMVEX///8JJDMAAB8AHy/EycwAIDAAABoAAB0AGCoAGiwADSQAEiYAHC1faXHt8PE+Tlikqa3Z3N6TmZ4lOke7v8KpsLQyQ04AABdpdX3l5+iDjZMABiAADiQAABQAABEAAABMWWOco6jP09X09fbU2NoWLz1VYmsAAAl8ho1weoE2R1Oxt7uLk5np6+0LKTltd35GVV8TLDuX7GkFAAAQs0lEQVR4nO1d6WKqvBYtYSY4giKCrYJaHGg97/9ylykjoKj0HL/erF8tQkiykp09Jby9CQgICAgICAgICAgICAgICAgICAgICAgICAgICAgICAgICAgI/BNEUbf7Jh3vE/hbiMfOuOu97vH0k1URuA9poh/T7rfHI3Pzc5URuAfDg/dx5q6lyjj5HqzX+8Xh7Nbl5PlD+qHZ57uH+GdK7hlDJZn86zq8vU21ECj0hdg9qABY0DBt2zYMGAAwmnIVPXnavPe6T8bfJgi04X1P+XfIjJ7gn5I/AHwqt+/8WSiOZUtb6kK0UIGhSizsUJ9PmU51A1Of9lmR03oHrPzF8B7yhskOmvPOy3UfiAYOCPKKgn9NXqLJ9pdP/nfnWo25EnIIDtSNb66ugkuPEm4fVu+9hzzfhtlTsrbvrx43cdariv5j8nwnlOwv0lmuo8uNzJUw3g9Ux7oryQi3DaU+hoEp3U1e/KeqbvDdWz1uYgqlVyDPhbIkq3g6pXvtGnVFx0JKQo09SdXcvirzCHnjAFVM/3vKw2uQN/ay+U/mzsk0blCXQdXXpG8XYdZrs55qc5W8yXLU9MzaRvUKa7ZLfLr0VTUWL0He1Msq8I5nTuI1r3U8DJtYDvOs87yeuqidvHQz90Kn6Zk5lhSQs3WUbyvQfi95Sy17f4DaHK+DGk1tk8/DotO3sv8/+5GcLeRlE0gLZUltJI+aebTmu10aIJMi1q8lb5pzZyJhFB8hz9EVeFhGbXLKQS/OzmbyDnZQzK5m8sYAVUkjddg6ABZC5NeSN8tlpmpUykrsdFjuKKwwe07WtfJXHxZDM3lOJRibyYt31c+QshVcvSrot5KnaMVwRa0b3cddxh6SnFHeU2ajNnEnmsmbXyXvzYf5JFODOTV8XLQA/FLy0kKu2Jfq31xrvBMaqvg+73PQg6/lIfLeht+qpu2W9KXfTt6oWOi9ykrYAOluqEbVxdtCSPVgZj1GXiY6/ZSV2r+cvHPRPGNQ/jdZtVJkG2EAMgTQ5M13Y10VVmh8eBI/jkfJq+F3k7fVyrZV2srclpogh5q8P2xcJcPpvDjqnLtaq5a9avl8OkIkyOuEY9EhxqL8r1lowuC42TLiKFaSnU7xjAWnk3Oqft18bVyi7ecXJ49U/SZ5V5v5JGYlW1q5TMVq3bGihtaycRFT9hrRS+GhvFg2JrjWU0P3PLjsTMuy7N1lMG1sdI28bT7nHRWRpxDkPeMrDMrlO87/xJ1rLPnfI/RvzTId4jvr0cHYTdaOYVmms18qN8jbTgcjNWundNwv3R9g0CrebK/L/5Z1TRMa09bXTgYrvPp9lu2cFCqLumt7JN0c37NF0y5pUG0DgtWg3u4aeYNVttrikaUWi2+Bj/zh6Seg4M3LqnxkfxN3g4F/X5Vr8k4r/9VqlXU/UOG8kzRaeACWlVdtCPQkQeO3Rt7wLGmZdlBIIjm7933ft2CdlmwF5SIV1zwrsp5cHTGTORJLRjX1voqW6S1eMuU9rMcqDH3OD/4aeYs241PPH90wg04uLc2J3vKIXRrxSAjLc76WLlo8LDaw6691rhoGqidPXrwEISfFTOD0Sh8Sk1r578bimgmdm86uKZoPQdnNS0j1Tw1+sxEp65wr+SXJ21hmS4kST56ya2qo7C1udecdqEJgZlWmw80KsO8gqCNYKi5WKWKqhoOWXJJ5S5BQS5jbXpG8RVt5ZYNp8jbvLUEZ6Pj8yx5GxRYohdzW4/qFzyJrRjyHVB/45ey1WtIBp20+b4954AXJ2/NiiQVN3kFrvU0GfbGnVM2D5TRZsh2rd07HvBQPVtUqVUK7xcMZtbaLadXrkTe4zh1N3ve1gJr8dWc+XBu+yx6RK7NpxIg07Y5U2rlBWnopSzGb6xhLqiQbFggsaFkgpBYRSGee1LVNACEksghiFCl3G80wDGx2IvI+s5+JLWrjR4J1Wel7yFvSBrBqhLkuCun+IuRNqUFjhyBrKAiooWc8738qUA0mWLpyh4yBHiQ3HqZR5P5UA7pSnvUWzWqge04yiyb+cDiJZoMVoY+2x2vkzZLlcrlDt+6WGEWyq7v4/v4eIKIq8ob5I7gge0+eKYflPeRFn6RnZGAfxkoUKWeHSvPB5Cnv5E5vtIn8YTpxE4vIhj4c99lrqjpWhoJLk4e9ld0wyccBLP4cl0OCT0VAcBNG6KcDLGMCaoF5xMPiI4ksUyJbwR6WmsvuHvIoVS6cEzNIcfBKg8iLd1g+MLr6OcDXtT4Sg5PqzZV7hV441Hsl8yyTFUFBy6yy+wdda4FeS5sXj5A3aSLvinvsDvI2ZBXTObUYTXdE3hmvjXDN3KlgaQrvEWptQMOp6iBaJ1jdnYqyNqv6o+4yuj6Jh2pArr0YeX/wrAGcQOHdYzGeAbViZ1iy6c+7yuIV+xbKBDPuTzoevlf9g1r+3vXJMRqrgLhQX4u8E+52yFvZPHnEz+HVbIILmqXB8/tyUBXlSv1xiDL3iDGyhOUyh8SD1rWMCWDbn+O1yMN5aarKzxmePNyJyF1IAekYktl1SWkHWuPQWkNkg/FIvvjQKGU5avmtNLI0ck+z2ewU+YgoKlf2pciL8YoHa4oiRx6JZYN67n9uJl2p/10YVGtcFcuLv4hgfyiPIdGLwXYKmKHYCGW5Bis9sDIEOpZJBlnIX4o8PGOkVU1P5MgboyWvsYp7rN08rW9W1jTqM0Jem1f5BvzPgrxK22w19N78xASwKWBPTfiXIu+MCJKPtZdy5GGlz0hSn0d6QL9qT2f5zNEuqirdCovN4MGs51FBHpLGLaXEhwC2eG2ppeClyPtGfQ6X/J08eSM8KG1QB/7x6ZyJGHUhMjvwWgse1GQ3RUFoeDXPPNdsz8ZGIeG3FyMPM9KQSsGSRy09V/Ho9MBIkVKL9CLUmM7mNY9JsZyjpjaOrunqSutelTzMSIMOxpHXMW+yLVbdGSmvuKIOq2+Q6oqibcjmbtI2Nx7fDJrLVyUPm24NGiRL3rA9FsTg6TUvRS9C+gmqx3NbRXzU8AY7j4kHGQHIUzxMC4/W1yev3uePkWc9GxZK+bYiHV9/qmRUSpOHhXbvWt+zbaEw+8r/HXn1N94LLDbVXamgIDatp4rF6rBZ+4k492SDFs1oTXlV8rCKpd9a86iomq614/PpIw+GZECldGueNP9txES9gnjiqX+YIfzq5BHPed0nySksODoJlckVPG2jY1MBD6gyRER14QPYonbX43k+jomsWPHz6uQhb0ZTjJKz87BzX+8v0agR+EVIvSz1iee8pihG2GDmnfgUzwrY5feq5OGVQK5nMHDkYQdYPfbbL7CvHNNVTIHnyMP58kZN7Vm2ZIYPcabCGl+7Qd6uyY1wnby6AdQ+FDjySMbbqvZejjzcRqPPDM0GLFAH4X0hRf70U2ITN7shewwP4ICVmjgk1Jk8ybifvHpA4IiXYH6ckdwJzjEd3ooqkFuDnpLEWoA94FgFLpSlpxQW7ElqsPSxizBk1wPkyZbkNb52g7zGLJDr5NXja1jy1DaDYvdyFRLCjNyO5+GQUC+5Du1oGFDFivWEqaBgO6ch6IFnHmcuYcIppz0mz6KJxrmJjaHo6+TVt52RAcLNJ3KsBB+MracY8OThQqXVj27Yi/EowUt2mlfliQwLzENTVAnrMiGzA4AQTu0twn3AeKTW14pvJo+k/QS8bwuvT6rJtJhwV0+DkCxOIzhz5CnUrTX2hsf+ZClJWlmh8Z3nPj3uHiPJg02eV5yrov6hrk5s4t4kc56QR/cA3k8lBeRyjNTIRvJinEXJzMdcLuBJycyndEB5SeoJSBJkdjTNaruEyNZiVeciSDMV9CdL8VSgAlU7mZsY9wC73xv352ETUDJGWBiOA8o17eGBSUQa3dwTycB7nxZyOY6STzQXGskjdZKMY9m//mz+kb9/SLJjIdp8FR1WdF49Tv2jogWyN5qVct8fO+Q6Ii+ifO/QOqPpHm+natbU/sw/MsVVfPJNtHrcViBbM4NG/skcs+Fg7Cru+FtidgAAPF+xcsPM0pTqmBA686OjAsO4Th4ZoZIMJOc431mWXGZ2XWz6p+N+P5cAuyUCJ90ym5tsK5Dyl4cWNfCwiDjQTYLZKy/7/SiraBGC7tGCIO0CWANYBo9qLBE1FhpvmFJZvWYYgCDkjmIlAoAISEAb13s6e0KVi22nN8iLdPaR4pky4uGyP9m2zAcbMXmTd/YHtXp5A3lvc2YXX3YjXfBj6UFNwPof3muS4WKAh0KF+PSo1tMgYvtGnJlYKYRnfKpWDqXhoJEb5FGZCQRVuKrl6AsCstFkXItEciDkDaUrxZq9HcNLjUoy9WIHPvSCNR4JreewuM2HvJC2YnFL1Uy1ZkQZHNSTKG6RNwG1RxB5TT8xFaK2eNXjyCwozSp12lM9pPfejgMmopySdKnxyLJ6Jh3RHiceN7HnncjGwBCpcnSI/YN0YcOhdrfIa5o0KFB8amIkW5Cxh5I+yrfx0GZ8jVaL44HWJmNsrzenJznZVwqIS8QH9WzfmyURBTu4soXpBPjOh5mMjVXUBzIK4W5IeZDmIp7zmxxvkve2eee7HUf5XY+vj6mNfGwcMtuatw7gKTHgHhXNOmxP0Gqiz/AuPZ6gTGU7UT6RVL136s1IXxtXT/0bLt5DasNjqBenjE+sapsnOWt3j5LxtTVbwtJjNjXKASbv0ygB+fTK7Vwzqb5U7Q/chelgRYpTTUsbZHPffa9K8litebbTDPJuOdQW8VSrbn3nTPLNzmOSU/OTP8Ci1y8vUec/0Etp3G03OsaYLFGydMOL4E9HhqbnudKafdlUN/trzwoDz6FkyhJmNwFtXgvlpOcj0IIwK0HXNPV4QB0yHCwq1NMrlf2XBiwrtAJds5z9hnKpTM5HS8uTt4G2G8yK+kxQSQNedVOS6uai8tlwd/GttSkVLUeyVqaFA03/GiW9n6NDJcA+frr3lHJKdPHPDCfubDxzJzTNk9nYZds/VMZjt1kEpNFpPJ6d3Mjv7G+K/eyd2TPKJK31YVkfxe/UuWlV+S43D30lq+j4pGy7lX0nTpSt03lfD4dviruezpgW6ATazfBQMMinFeO+TncX6ATa1nnEwJvRy3Jv31UQ6IYpxZ5+r9fbX1NiV/WEzPzbGFG+OO0uNTNOVtS0M+T+viUk0BHMIZta90NC0iWk3UD0p2kE/hoi2sXXde5F3wx19h2sC/SJEx3w0KmQUzputh6is8P4lVRt9AJf3fw/BeMyD4/EoBwmIJnR2dmxH00HADCbW9VgJ77Y/A9BH3YmmRLlp0sP3gd0jpfBIhnsR/M/lh6y4SpZ7/5dboEfwZQO1qjM0aXDjapZpmnmn/zlY81yqI+EffDPcfqkeQl3jJM8Sr48i/sUhmobgXec/vCGCoFOUGxaHMr6gKVlMlscoQasMIQwDANd+7okJ2EcvAr8IxPnNKyEn1VDX5ltNtPpZnyKfsRNLvA4EjbkDL2F8Jn8dxA57PHIhuZsxKL2n8EUsplPsmUdp9smERlHZ2HdvRjSROMS12SomevkpJAp6Cun5KINxJx8PaRJEPBpoza0gLcC5m63M8HK8z4/a9qMwGsgno20hm/+5MZdhmwmHjdC13xhTKZzyH44oBKhejg/Cyf0yyN1lyPPyz9fUSAMgOcdk5MQl/8ZpJE7PicZzmM36uN7AAICAgICAgICAgIC/xb/A4jZODJifv/1AAAAAElFTkSuQmCC;" vertex="1" parent="XA0mJjuyiel9CvAW2BMo-2">
          <mxGeometry x="11.399999999999999" y="50" width="157.19" height="40" as="geometry" />
        </mxCell>
        <mxCell id="Isy8j8eHQPNsG9e2mkLF-7" value="Admin" style="shape=umlActor;verticalLabelPosition=bottom;verticalAlign=top;html=1;outlineConnect=0;" vertex="1" parent="1">
          <mxGeometry x="910" y="620" width="50" height="100" as="geometry" />
        </mxCell>
        <mxCell id="XA0mJjuyiel9CvAW2BMo-1" value="&lt;b id=&quot;docs-internal-guid-b1cf8094-7fff-5f28-c3df-4e8626fdc009&quot; style=&quot;font-weight:normal;&quot;&gt;&lt;span style=&quot;font-size: 12pt; font-family: Roboto, sans-serif; color: rgb(33, 33, 33); background-color: transparent; font-weight: 400; font-style: italic; font-variant: normal; text-decoration: none; vertical-align: baseline;&quot;&gt;Google Cloud&lt;/span&gt;&lt;/b&gt;" style="swimlane;whiteSpace=wrap;html=1;" vertex="1" parent="1">
          <mxGeometry x="1080" y="120" width="2410" height="750" as="geometry" />
        </mxCell>
        <mxCell id="XA0mJjuyiel9CvAW2BMo-5" value="Google Cloud Storage" style="swimlane;whiteSpace=wrap;html=1;" vertex="1" parent="XA0mJjuyiel9CvAW2BMo-1">
          <mxGeometry x="760" y="40" width="360" height="570" as="geometry" />
        </mxCell>
        <mxCell id="XA0mJjuyiel9CvAW2BMo-22" value="" style="editableCssRules=.*;html=1;shape=image;verticalLabelPosition=bottom;labelBackgroundColor=#ffffff;verticalAlign=top;aspect=fixed;imageAspect=0;image=data:image/svg+xml,PHN2ZyB4bWxucz0iaHR0cDovL3d3dy53My5vcmcvMjAwMC9zdmciIHhtbG5zOnY9Imh0dHBzOi8vdmVjdGEuaW8vbmFubyIgd2lkdGg9IjIwIiBoZWlnaHQ9IjE2IiB2aWV3Qm94PSIwIDAgMjAgMTYiPiYjeGE7CTxzdHlsZSB0eXBlPSJ0ZXh0L2NzcyI+JiN4YTsJLnN0MHtmaWxsOiM0Mjg1ZjQ7fSYjeGE7CS5zdDF7ZmlsbDojNjY5ZGY2O30mI3hhOwkuc3Qye2ZpbGw6I2FlY2JmYTt9JiN4YTsJLnN0M3tmaWxsOiNmZmY7fSYjeGE7CTwvc3R5bGU+JiN4YTsJPHBhdGggY2xhc3M9InN0MiIgZD0iTTAgMGgyMHY3SDB6Ii8+JiN4YTsJPHBhdGggY2xhc3M9InN0MSIgZD0iTTE4IDBoMnY3aC0yeiIvPiYjeGE7CTxwYXRoIGNsYXNzPSJzdDAiIGQ9Ik0xOCA3bDItN2gtMnoiLz4mI3hhOwk8cGF0aCBjbGFzcz0ic3QxIiBkPSJNMCAwaDJ2N0gweiIvPiYjeGE7CTxnIGNsYXNzPSJzdDMiPiYjeGE7CQk8cGF0aCBkPSJNNCAzaDZ2MUg0eiIvPiYjeGE7CQk8cmVjdCB4PSIxMyIgeT0iMiIgd2lkdGg9IjMiIGhlaWdodD0iMyIgcng9IjEuNSIvPiYjeGE7CTwvZz4mI3hhOwk8cGF0aCBjbGFzcz0ic3QyIiBkPSJNMCA5aDIwdjdIMHoiLz4mI3hhOwk8cGF0aCBjbGFzcz0ic3QxIiBkPSJNMTggOWgydjdoLTJ6Ii8+JiN4YTsJPHBhdGggY2xhc3M9InN0MCIgZD0iTTE4IDE2bDItN2gtMnoiLz4mI3hhOwk8cGF0aCBjbGFzcz0ic3QxIiBkPSJNMCA5aDJ2N0gweiIvPiYjeGE7CTxnIGNsYXNzPSJzdDMiPiYjeGE7CQk8cGF0aCBkPSJNNCAxMmg2djFINHoiLz4mI3hhOwkJPHJlY3QgeD0iMTMiIHk9IjExIiB3aWR0aD0iMyIgaGVpZ2h0PSIzIiByeD0iMS41Ii8+JiN4YTsJPC9nPiYjeGE7PC9zdmc+;" vertex="1" parent="XA0mJjuyiel9CvAW2BMo-5">
          <mxGeometry x="300" y="31" width="40" height="32" as="geometry" />
        </mxCell>
        <mxCell id="XA0mJjuyiel9CvAW2BMo-25" value="Calls.CSV" style="shape=note;whiteSpace=wrap;html=1;backgroundOutline=1;darkOpacity=0.05;size=16;" vertex="1" parent="XA0mJjuyiel9CvAW2BMo-5">
          <mxGeometry x="85" y="53" width="85" height="90" as="geometry" />
        </mxCell>
        <mxCell id="Isy8j8eHQPNsG9e2mkLF-5" value="FinalCalls.CSV" style="shape=note;whiteSpace=wrap;html=1;backgroundOutline=1;darkOpacity=0.05;size=16;" vertex="1" parent="XA0mJjuyiel9CvAW2BMo-5">
          <mxGeometry x="210" y="390" width="90" height="103" as="geometry" />
        </mxCell>
        <mxCell id="Isy8j8eHQPNsG9e2mkLF-49" value="&lt;meta charset=&quot;utf-8&quot;&gt;&lt;span style=&quot;color: rgb(0, 0, 0); font-family: Helvetica; font-size: 12px; font-style: normal; font-variant-ligatures: normal; font-variant-caps: normal; font-weight: 400; letter-spacing: normal; orphans: 2; text-align: center; text-indent: 0px; text-transform: none; widows: 2; word-spacing: 0px; -webkit-text-stroke-width: 0px; background-color: rgb(251, 251, 251); text-decoration-thickness: initial; text-decoration-style: initial; text-decoration-color: initial; float: none; display: inline !important;&quot;&gt;Dataset Contact Center&lt;/span&gt;" style="shape=cylinder3;whiteSpace=wrap;html=1;boundedLbl=1;backgroundOutline=1;size=15;" vertex="1" parent="XA0mJjuyiel9CvAW2BMo-5">
          <mxGeometry x="60" y="206" width="97.5" height="100.5" as="geometry" />
        </mxCell>
        <mxCell id="XA0mJjuyiel9CvAW2BMo-7" value="Google Cloud Speech-to-text API" style="swimlane;whiteSpace=wrap;html=1;" vertex="1" parent="XA0mJjuyiel9CvAW2BMo-1">
          <mxGeometry x="140" y="40" width="200" height="180" as="geometry" />
        </mxCell>
        <mxCell id="XA0mJjuyiel9CvAW2BMo-4" value="" style="editableCssRules=.*;html=1;shape=image;verticalLabelPosition=bottom;labelBackgroundColor=#ffffff;verticalAlign=top;aspect=fixed;imageAspect=0;image=data:image/svg+xml,PHN2ZyB4bWxucz0iaHR0cDovL3d3dy53My5vcmcvMjAwMC9zdmciIHhtbG5zOnY9Imh0dHBzOi8vdmVjdGEuaW8vbmFubyIgd2lkdGg9IjE4IiBoZWlnaHQ9IjIwIiB2aWV3Qm94PSIwIDAgMTggMjAiPiYjeGE7CTxzdHlsZSB0eXBlPSJ0ZXh0L2NzcyI+JiN4YTsJLnN0MHtmaWxsOiM0Mjg1ZjQ7fSYjeGE7CS5zdDF7ZmlsbDojNjY5ZGY2O30mI3hhOwk8L3N0eWxlPiYjeGE7CTxwYXRoIGNsYXNzPSJzdDAiIGQ9Ik04IDBoMnYyMEg4ek00IDZoMnY4SDR6bTggMGgydjhoLTJ6TTAgM2gydjE0SDB6bTE2IDBoMnYxNGgtMnoiLz4mI3hhOwk8cGF0aCBjbGFzcz0ic3QxIiBkPSJNOCAwaDJ2MTBIOHpNNCA2aDJ2NEg0em04IDBoMnY0aC0yek0wIDNoMnY3SDB6bTE2IDBoMnY3aC0yeiIvPiYjeGE7PC9zdmc+;" vertex="1" parent="XA0mJjuyiel9CvAW2BMo-7">
          <mxGeometry x="49.95" y="55" width="80.1" height="89" as="geometry" />
        </mxCell>
        <mxCell id="XA0mJjuyiel9CvAW2BMo-23" value="Google DataProc" style="swimlane;whiteSpace=wrap;html=1;" vertex="1" parent="XA0mJjuyiel9CvAW2BMo-1">
          <mxGeometry x="1540" y="187" width="200.00000000000006" height="200" as="geometry" />
        </mxCell>
        <mxCell id="XA0mJjuyiel9CvAW2BMo-24" value="Hadoop" style="shape=cube;whiteSpace=wrap;html=1;boundedLbl=1;backgroundOutline=1;darkOpacity=0.05;darkOpacity2=0.1;" vertex="1" parent="XA0mJjuyiel9CvAW2BMo-23">
          <mxGeometry x="40" y="82" width="120" height="80" as="geometry" />
        </mxCell>
        <mxCell id="Isy8j8eHQPNsG9e2mkLF-45" value="" style="editableCssRules=.*;html=1;shape=image;verticalLabelPosition=bottom;labelBackgroundColor=#ffffff;verticalAlign=top;aspect=fixed;imageAspect=0;image=data:image/svg+xml,PHN2ZyB4bWxucz0iaHR0cDovL3d3dy53My5vcmcvMjAwMC9zdmciIHhtbG5zOnY9Imh0dHBzOi8vdmVjdGEuaW8vbmFubyIgd2lkdGg9IjE1Ljk2NTYwODU5NjgwMTc1OCIgaGVpZ2h0PSIxNC43ODkzMTUyMjM2OTM4NDgiIHZpZXdCb3g9IjAuMDQxMjc5MTMzNDA5MjYxNzAzIDAuMDAwMTYyNjU3NDY2NzE3MDY0MzggMTUuOTY1NjA4NTk2ODAxNzU4IDE0Ljc4OTMxNTIyMzY5Mzg0OCI+JiN4YTsJPHN0eWxlIHR5cGU9InRleHQvY3NzIj4mI3hhOwkuc3Qwe2ZpbGw6IzQyODVmNDt9JiN4YTsJPC9zdHlsZT4mI3hhOwk8cGF0aCBjbGFzcz0ic3QwIiBkPSJNMTUuNTgxIDkuODMyYTMuMTIgMy4xMiAwIDAgMC0xLjE0LTEuMTNoLS4xMmwtNS0yLjg4YTMuMTIgMy4xMiAwIDEgMC00LjY4LTIuNjZoMHY1LjhhMy4wOSAzLjA5IDAgMCAwLTMuMDYgMGgwYTMuMTMxIDMuMTMxIDAgMCAwIDMuMSA1LjQ0aDAgMGw1LjA4LTIuOTRhMy4wOSAzLjA5IDAgMCAwIC40MSAxLjUyIDMuMTMgMy4xMyAwIDEgMCA1LjQxLTMuMTV6bS05LjQgMS4zMnYtNS4zNmEzLjExIDMuMTEgMCAwIDAgLjUzLjI1bDQuNjEgMi42N2gwYTMuMTMgMy4xMyAwIDAgMC0uNTEuMzhsLTQuNTggMi42MmEzLjA4IDMuMDggMCAwIDAtLjA1LS41NnptLjgyLTkuMzZhMS41MiAxLjUyIDAgMSAxLS43NyAxLjMyIDEuNTIgMS41MiAwIDAgMSAuNzctMS4zMnptLTMuMSAxMS4yMWExLjUyIDEuNTIgMCAxIDEgLjU3LTIuMDcgMS41MiAxLjUyIDAgMCAxLS41NyAyLjA3em05Ljc2LS4zM2ExLjUyIDEuNTIgMCAwIDEtMi4wOS0uNWgwYTEuNTIxIDEuNTIxIDAgMSAxIDIuNjMtMS41M2wuMDcuMTJhMS41MiAxLjUyIDAgMCAxLS42MiAxLjkxeiIvPiYjeGE7PC9zdmc+;" vertex="1" parent="XA0mJjuyiel9CvAW2BMo-23">
          <mxGeometry x="168" y="23" width="32" height="30" as="geometry" />
        </mxCell>
        <mxCell id="Isy8j8eHQPNsG9e2mkLF-56" value="" style="shape=image;verticalLabelPosition=bottom;labelBackgroundColor=default;verticalAlign=top;aspect=fixed;imageAspect=0;image=https://aitor-medrano.github.io/iabd2223/hadoop/images/03hadoop-logo.jpg;" vertex="1" parent="XA0mJjuyiel9CvAW2BMo-23">
          <mxGeometry x="142.94000000000005" y="130" width="57.06" height="70" as="geometry" />
        </mxCell>
        <mxCell id="Isy8j8eHQPNsG9e2mkLF-23" value="Upload" style="edgeStyle=orthogonalEdgeStyle;rounded=0;orthogonalLoop=1;jettySize=auto;html=1;exitX=1;exitY=0;exitDx=0;exitDy=52.5;exitPerimeter=0;entryX=0;entryY=0;entryDx=0;entryDy=30;entryPerimeter=0;" edge="1" parent="XA0mJjuyiel9CvAW2BMo-1" source="Isy8j8eHQPNsG9e2mkLF-49" target="XA0mJjuyiel9CvAW2BMo-24">
          <mxGeometry relative="1" as="geometry">
            <mxPoint x="930" y="298.5" as="sourcePoint" />
          </mxGeometry>
        </mxCell>
        <mxCell id="Isy8j8eHQPNsG9e2mkLF-24" value="Create" style="edgeStyle=orthogonalEdgeStyle;rounded=0;orthogonalLoop=1;jettySize=auto;html=1;exitX=0;exitY=0;exitDx=70;exitDy=80;exitPerimeter=0;entryX=0;entryY=0;entryDx=90;entryDy=59.5;entryPerimeter=0;" edge="1" parent="XA0mJjuyiel9CvAW2BMo-1" source="XA0mJjuyiel9CvAW2BMo-24" target="Isy8j8eHQPNsG9e2mkLF-5">
          <mxGeometry relative="1" as="geometry" />
        </mxCell>
        <mxCell id="Isy8j8eHQPNsG9e2mkLF-25" value="Generate" style="edgeStyle=orthogonalEdgeStyle;rounded=0;orthogonalLoop=1;jettySize=auto;html=1;exitX=1;exitY=0.5;exitDx=0;exitDy=0;entryX=0;entryY=0.5;entryDx=0;entryDy=0;entryPerimeter=0;" edge="1" parent="XA0mJjuyiel9CvAW2BMo-1" source="XA0mJjuyiel9CvAW2BMo-4" target="XA0mJjuyiel9CvAW2BMo-25">
          <mxGeometry relative="1" as="geometry" />
        </mxCell>
        <mxCell id="Isy8j8eHQPNsG9e2mkLF-48" style="edgeStyle=orthogonalEdgeStyle;rounded=0;orthogonalLoop=1;jettySize=auto;html=1;exitX=1;exitY=0.5;exitDx=0;exitDy=0;" edge="1" parent="XA0mJjuyiel9CvAW2BMo-1" source="Isy8j8eHQPNsG9e2mkLF-30" target="XA0mJjuyiel9CvAW2BMo-24">
          <mxGeometry relative="1" as="geometry" />
        </mxCell>
        <mxCell id="Isy8j8eHQPNsG9e2mkLF-30" value="&lt;b id=&quot;docs-internal-guid-433c466a-7fff-5cf5-cf9d-d8fcfb3582a0&quot; style=&quot;font-weight:normal;&quot;&gt;&lt;span style=&quot;font-size: 12pt; font-family: Roboto, sans-serif; color: rgb(33, 33, 33); background-color: transparent; font-weight: 400; font-style: italic; font-variant: normal; text-decoration: none; vertical-align: baseline;&quot;&gt;Google Cloud Functions &quot;aviso a Hadoop de nueva informaciÃ³n&quot;&lt;/span&gt;&lt;/b&gt;" style="rounded=1;whiteSpace=wrap;html=1;fillColor=#d5e8d4;strokeColor=#82b366;" vertex="1" parent="XA0mJjuyiel9CvAW2BMo-1">
          <mxGeometry x="1190" y="200" width="290" height="60" as="geometry" />
        </mxCell>
        <mxCell id="XA0mJjuyiel9CvAW2BMo-8" value="" style="shape=mxgraph.signs.tech.telephone_2;html=1;pointerEvents=1;fillColor=#000000;strokeColor=none;verticalLabelPosition=bottom;verticalAlign=top;align=center;" vertex="1" parent="XA0mJjuyiel9CvAW2BMo-1">
          <mxGeometry x="60" y="150" width="20" height="41" as="geometry" />
        </mxCell>
        <mxCell id="Isy8j8eHQPNsG9e2mkLF-47" style="edgeStyle=orthogonalEdgeStyle;rounded=0;orthogonalLoop=1;jettySize=auto;html=1;exitX=0;exitY=0;exitDx=85;exitDy=53;exitPerimeter=0;entryX=0;entryY=0.5;entryDx=0;entryDy=0;" edge="1" parent="XA0mJjuyiel9CvAW2BMo-1" source="XA0mJjuyiel9CvAW2BMo-25" target="Isy8j8eHQPNsG9e2mkLF-30">
          <mxGeometry relative="1" as="geometry" />
        </mxCell>
        <mxCell id="Isy8j8eHQPNsG9e2mkLF-50" value="&lt;b id=&quot;docs-internal-guid-433c466a-7fff-5cf5-cf9d-d8fcfb3582a0&quot; style=&quot;font-weight:normal;&quot;&gt;&lt;span style=&quot;font-size: 12pt; font-family: Roboto, sans-serif; color: rgb(33, 33, 33); background-color: transparent; font-weight: 400; font-style: italic; font-variant: normal; text-decoration: none; vertical-align: baseline;&quot;&gt;Google Cloud Functions &quot;aviso a ElasticSearch de nueva informaciÃ³n para analizar&quot;&lt;/span&gt;&lt;/b&gt;" style="rounded=1;whiteSpace=wrap;html=1;fillColor=#d5e8d4;strokeColor=#82b366;" vertex="1" parent="XA0mJjuyiel9CvAW2BMo-1">
          <mxGeometry x="1300" y="540" width="290" height="60" as="geometry" />
        </mxCell>
        <mxCell id="Isy8j8eHQPNsG9e2mkLF-52" style="edgeStyle=orthogonalEdgeStyle;rounded=0;orthogonalLoop=1;jettySize=auto;html=1;exitX=0.5;exitY=1;exitDx=0;exitDy=0;exitPerimeter=0;entryX=0;entryY=0.5;entryDx=0;entryDy=0;" edge="1" parent="XA0mJjuyiel9CvAW2BMo-1" source="Isy8j8eHQPNsG9e2mkLF-5" target="Isy8j8eHQPNsG9e2mkLF-50">
          <mxGeometry relative="1" as="geometry" />
        </mxCell>
        <mxCell id="Isy8j8eHQPNsG9e2mkLF-60" value="" style="editableCssRules=.*;html=1;shape=image;verticalLabelPosition=bottom;labelBackgroundColor=#ffffff;verticalAlign=top;aspect=fixed;imageAspect=0;image=data:image/svg+xml,PHN2ZyB4bWxucz0iaHR0cDovL3d3dy53My5vcmcvMjAwMC9zdmciIHhtbG5zOnY9Imh0dHBzOi8vdmVjdGEuaW8vbmFubyIgd2lkdGg9IjIwIiBoZWlnaHQ9IjE5Ljk4OTk5OTc3MTExODE2NCIgdmlld0JveD0iMCAwIDIwIDE5Ljk4OTk5OTc3MTExODE2NCI+JiN4YTsJPHN0eWxlIHR5cGU9InRleHQvY3NzIj4mI3hhOwkuc3Qwe2ZpbGw6IzQyODVmNDt9JiN4YTsJLnN0MXtmaWxsOiM2NjlkZjY7fSYjeGE7CS5zdDJ7ZmlsbDojYWVjYmZhO30mI3hhOwk8L3N0eWxlPiYjeGE7CTxwYXRoIGNsYXNzPSJzdDEiIGQ9Ik0zIDMuOTlMMCA2LjQydjcuMTNsMyAyLjQ0eiIvPiYjeGE7CTxwYXRoIGNsYXNzPSJzdDAiIGQ9Ik0zIDMuOTlsLTMgNCAzLTJ6bS0zIDhsMyA0di0yeiIvPiYjeGE7CTxwYXRoIGNsYXNzPSJzdDIiIGQ9Ik0wIDE1Ljk5bDQgNCAyLTItNi02em0uMDEtOEw1Ljk5IDJsLTItMkwwIDMuOTl6Ii8+JiN4YTsJPHBhdGggY2xhc3M9InN0MSIgZD0iTTE3IDE2bDMtMi40MlY2LjQ0TDE3IDR6Ii8+JiN4YTsJPHBhdGggY2xhc3M9InN0MCIgZD0iTTE3IDE2bDMtNC0zIDJ6bTMtOGwtMy00djJ6Ii8+JiN4YTsJPGcgY2xhc3M9InN0MiI+JiN4YTsJCTxwYXRoIGQ9Ik0yMCA0bC00LTQtMiAyIDYgNnptLS4wMSA4bC01Ljk4IDUuOTkgMiAyTDIwIDE2eiIvPiYjeGE7CQk8Y2lyY2xlIGN4PSI2IiBjeT0iOS45OSIgcj0iMSIvPiYjeGE7CQk8Y2lyY2xlIGN4PSIxMCIgY3k9IjkuOTkiIHI9IjEiLz4mI3hhOwkJPGNpcmNsZSBjeD0iMTMuOTkiIGN5PSI5Ljk5IiByPSIxIi8+JiN4YTsJPC9nPiYjeGE7PC9zdmc+;" vertex="1" parent="XA0mJjuyiel9CvAW2BMo-1">
          <mxGeometry x="1580" y="510" width="40" height="40" as="geometry" />
        </mxCell>
        <mxCell id="Isy8j8eHQPNsG9e2mkLF-59" value="" style="editableCssRules=.*;html=1;shape=image;verticalLabelPosition=bottom;labelBackgroundColor=#ffffff;verticalAlign=top;aspect=fixed;imageAspect=0;image=data:image/svg+xml,PHN2ZyB4bWxucz0iaHR0cDovL3d3dy53My5vcmcvMjAwMC9zdmciIHhtbG5zOnY9Imh0dHBzOi8vdmVjdGEuaW8vbmFubyIgd2lkdGg9IjIwIiBoZWlnaHQ9IjE5Ljk4OTk5OTc3MTExODE2NCIgdmlld0JveD0iMCAwIDIwIDE5Ljk4OTk5OTc3MTExODE2NCI+JiN4YTsJPHN0eWxlIHR5cGU9InRleHQvY3NzIj4mI3hhOwkuc3Qwe2ZpbGw6IzQyODVmNDt9JiN4YTsJLnN0MXtmaWxsOiM2NjlkZjY7fSYjeGE7CS5zdDJ7ZmlsbDojYWVjYmZhO30mI3hhOwk8L3N0eWxlPiYjeGE7CTxwYXRoIGNsYXNzPSJzdDEiIGQ9Ik0zIDMuOTlMMCA2LjQydjcuMTNsMyAyLjQ0eiIvPiYjeGE7CTxwYXRoIGNsYXNzPSJzdDAiIGQ9Ik0zIDMuOTlsLTMgNCAzLTJ6bS0zIDhsMyA0di0yeiIvPiYjeGE7CTxwYXRoIGNsYXNzPSJzdDIiIGQ9Ik0wIDE1Ljk5bDQgNCAyLTItNi02em0uMDEtOEw1Ljk5IDJsLTItMkwwIDMuOTl6Ii8+JiN4YTsJPHBhdGggY2xhc3M9InN0MSIgZD0iTTE3IDE2bDMtMi40MlY2LjQ0TDE3IDR6Ii8+JiN4YTsJPHBhdGggY2xhc3M9InN0MCIgZD0iTTE3IDE2bDMtNC0zIDJ6bTMtOGwtMy00djJ6Ii8+JiN4YTsJPGcgY2xhc3M9InN0MiI+JiN4YTsJCTxwYXRoIGQ9Ik0yMCA0bC00LTQtMiAyIDYgNnptLS4wMSA4bC01Ljk4IDUuOTkgMiAyTDIwIDE2eiIvPiYjeGE7CQk8Y2lyY2xlIGN4PSI2IiBjeT0iOS45OSIgcj0iMSIvPiYjeGE7CQk8Y2lyY2xlIGN4PSIxMCIgY3k9IjkuOTkiIHI9IjEiLz4mI3hhOwkJPGNpcmNsZSBjeD0iMTMuOTkiIGN5PSI5Ljk5IiByPSIxIi8+JiN4YTsJPC9nPiYjeGE7PC9zdmc+;" vertex="1" parent="XA0mJjuyiel9CvAW2BMo-1">
          <mxGeometry x="1470" y="170" width="40" height="40" as="geometry" />
        </mxCell>
        <mxCell id="Isy8j8eHQPNsG9e2mkLF-10" value="Google Compute Engine" style="swimlane;whiteSpace=wrap;html=1;" vertex="1" parent="1">
          <mxGeometry x="2880" y="270" width="528.75" height="560" as="geometry" />
        </mxCell>
        <mxCell id="Isy8j8eHQPNsG9e2mkLF-11" value="" style="editableCssRules=.*;html=1;shape=image;verticalLabelPosition=bottom;labelBackgroundColor=#ffffff;verticalAlign=top;aspect=fixed;imageAspect=0;image=data:image/svg+xml,PHN2ZyB4bWxucz0iaHR0cDovL3d3dy53My5vcmcvMjAwMC9zdmciIHhtbG5zOnY9Imh0dHBzOi8vdmVjdGEuaW8vbmFubyIgd2lkdGg9IjIwIiBoZWlnaHQ9IjIwIiB2aWV3Qm94PSIwIDAgMjAgMjAiPiYjeGE7CTxzdHlsZSB0eXBlPSJ0ZXh0L2NzcyI+JiN4YTsJLnN0MHtmaWxsOiM0Mjg1ZjQ7fSYjeGE7CS5zdDF7ZmlsbDojNjY5ZGY2O30mI3hhOwkuc3Qye2ZpbGw6I2FlY2JmYTt9JiN4YTsJPC9zdHlsZT4mI3hhOwk8cGF0aCBjbGFzcz0ic3QyIiBkPSJNNyA3aDZ2Nkg3eiIvPiYjeGE7CTxwYXRoIGNsYXNzPSJzdDEiIGQ9Ik05IDBoMnY0SDl6TTUgMGgydjRINXptOCAwaDJ2NGgtMnoiLz4mI3hhOwk8cGF0aCBjbGFzcz0ic3QwIiBkPSJNOSAxNmgydjRIOXptLTQgMGgydjRINXptOCAwaDJ2NGgtMnptMy01VjloNHYyem0wIDR2LTJoNHYyem0wLThWNWg0djJ6Ii8+JiN4YTsJPHBhdGggY2xhc3M9InN0MSIgZD0iTTAgMTFWOWg0djJ6bTAgNHYtMmg0djJ6bTAtOFY1aDR2MnoiLz4mI3hhOwk8cGF0aCBjbGFzcz0ic3QyIiBkPSJNMyAzdjE0aDE0VjN6bTEyIDEySDVWNWgxMHoiLz4mI3hhOwk8cGF0aCBjbGFzcz0ic3QxIiBkPSJNMTAgMTBsLTMgM2g2eiIvPiYjeGE7CTxwYXRoIGNsYXNzPSJzdDAiIGQ9Ik0xMyA3bC0zIDMgMyAzeiIvPiYjeGE7PC9zdmc+;" vertex="1" parent="Isy8j8eHQPNsG9e2mkLF-10">
          <mxGeometry x="460" y="30" width="50" height="50" as="geometry" />
        </mxCell>
        <mxCell id="Isy8j8eHQPNsG9e2mkLF-36" value="Kibana" style="shape=cube;whiteSpace=wrap;html=1;boundedLbl=1;backgroundOutline=1;darkOpacity=0.05;darkOpacity2=0.1;" vertex="1" parent="Isy8j8eHQPNsG9e2mkLF-10">
          <mxGeometry x="145.3800000000001" y="330" width="240" height="150" as="geometry" />
        </mxCell>
        <mxCell id="Isy8j8eHQPNsG9e2mkLF-32" value="ElasticSearch" style="shape=cube;whiteSpace=wrap;html=1;boundedLbl=1;backgroundOutline=1;darkOpacity=0.05;darkOpacity2=0.1;" vertex="1" parent="Isy8j8eHQPNsG9e2mkLF-10">
          <mxGeometry x="150" y="50" width="240" height="150" as="geometry" />
        </mxCell>
        <mxCell id="Isy8j8eHQPNsG9e2mkLF-35" value="" style="shape=image;verticalLabelPosition=bottom;labelBackgroundColor=default;verticalAlign=top;aspect=fixed;imageAspect=0;image=data:image/png,iVBORw0KGgoAAAANSUhEUgAAAOEAAADhCAMAAAAJbSJIAAAAwFBMVEX///80N0EAv7P+xRTr6+wrLzr+wgAAu6//78XC7er+wwAlKTUuMjwaHy3+wAD+xQD/8tD//vrv8PBeYGcgJDH/8Mr/9+P+1m3/67r+zkT//PLN8O6T3ti36eXU8vDt+vn+013+2Hb+0FD+01v+23/+zDn/89f+5qlDRk6Ki4/BwcS0tbjT09WVlpqjpKhvcXcOFSa7vL9/gIXf3+FWWF9RzcSk5N9519D+3Y7+5KH/4JX+ySb/7Lz/6bE9yL5m0cleGg7/AAAFZ0lEQVR4nO2aaVvqSgyAoZUZWsBShLK3CIrL8Z6dzQr8/391yr4IPoiTSejN+1U/8D7JJJl0EgmGYRiGYRiGYRiGYWCodfOldPptPK6k06V818P+PcpwvfxoWA6da7HHtR22hqOS52L/wi/gepVhNXSEsB3zILZtC9us3o0vUtMblcPIzT7stusphNkadbF/8WeopW+do4E7jGMLp/xWw/7lJ+FWOqY4IXQHLIXTHpOXLJWj33mO3oLoXLbS2A4fUHs1v6K3juSQaCvplk+pK6dg260Sts170u3zDt9hHFGtYBvt8haq9JthC5OQY7oq1OotEPdEHLtK83PXsZrHtovqZxnMz5zlage7rj44gH5zR+cV08+DOYC7iBBvZH2FTNAN9vUdzt3Du9cQwKUjShgfVE0wJykK7afR7WgL4AJR1Xvr6IYaA7jAMXX2xrHODF0jRtoEh9cIfjPFsibBsuYjuKXY1nEY3SpGhi6xQ3hFT3+N2VF0oDujZ6IKzhRhS6oHPWifgIBU7H55z6QCAbfEQU/RJTZUFGsEUnSBDVNuakQiOMOBuPm79yQO4QKQvtimE8EI51654C3aqHYY0VIsOCImaArFxSZPTvBNrWCN1BmMEA9qBRNtQmV0hvK78JBYjipfS5WoCaqOoEstRVWfwcQtrTIjxqoF06RyFOAC7IbYUtvYofqR+45SjoqO+oG7i7QaPYQDshLGXB3uIdoQl8IKmTIjHJBnCy621xJbhMqb4IJXCiG0hdNRfJNY42IfQtuxheg8wG3y7949XdaLWS2PYDfcpTQe+a5Xu8S30QzDMAzDMAzDMMxFUbhCoFDQaHiTSeknm3y8eXrWo1lIZpMYZLOpYu7mmwbDlxyK4FKzmPsPPJDfM4iGEZksdBx/pHANk8niX9gwIodwRqr4DCh4hXkM1xQBM/WliG035+cvMEPsQrPiJ1ii/kYvNEtSV0CGNzj9/j3ZRyBDbLENxe8gggUSpXRBBiRP/xAyTD1BGD7TaBYLQIL4jUizmJOBOIlU2uESAMMnKu1wTu6PekMyDX8ORJri3522Sf1Qb0hmpJkDMdf8JWWYzKi/CxMzzKnviNQM1RfTR2KGL8oN4x9DaoaxP4cAtTT+/TD+M03859L43y3ifz+M/x0//nua+O/a4r8vjf/Om85QA/bdgkzLB/v2RKUhwn0/jP834Ph/x4//WwwC9yfo9zTYpQb+TVT837XF/21i/N+X/g/eCDMMwzAMwzAMwzDMFhYidd8P4A0HEhdjMu3XYRWlgU3k2esDBrOBrxghjZ4Fpogtt0IafSDDJokgzpBGE0Zxgm22QU58CEOfTBAjJEiqDkgp9gDKaoBttQeAokUpiBEAI8AU22kXiMOI7bQHgCK1PJUN5Yo0hrcNAIqE+v4c9YlKrWUAKNaJ5akhlU+pfXKKyofUKTFFOVVtmOhhO+0yUS5IraBCbDZIFVSQqyIhRfVlZomPbbYCbsVIQ1HCbd5oKErYJTEBReAtOH65gSoyW0xQpxsNn2swBzg50SKIt2EEmEWP0cQRVH+1Pw5KSYUuonv0NGeqtiO4oa9XUGeGrgj0tQ2powseQteWUQ5w/CJ8HWEE+m54KhpOI8YJ3CaAnXBAvhh+Fh+ucciJ5h54DAvmOMoJ0OOEc2gayh3BHl+ci+I4korfCn+qLpA9Iudvn6ChwlEaAwL18yjWFwMpjSnkJk0JQbN3rqQ0ek3K4dsQWANDftIy+v/phegt8fvTky2j/+s1UIfPcwmag4nxoefsb5NB8yLt1gT1fmM6f+y7/8bZ6A36VnBRmfkhgV+3LKsZMX+nHh8xhmEYhmEYhmEYhkHkH8x68UjfZ4TjAAAAAElFTkSuQmCC;" vertex="1" parent="Isy8j8eHQPNsG9e2mkLF-10">
          <mxGeometry x="332.5" y="72.5" width="57.5" height="57.5" as="geometry" />
        </mxCell>
        <mxCell id="Isy8j8eHQPNsG9e2mkLF-38" value="Create" style="edgeStyle=orthogonalEdgeStyle;rounded=0;orthogonalLoop=1;jettySize=auto;html=1;exitX=0;exitY=0;exitDx=130;exitDy=150;exitPerimeter=0;entryX=0.559;entryY=-0.011;entryDx=0;entryDy=0;entryPerimeter=0;" edge="1" parent="Isy8j8eHQPNsG9e2mkLF-10" source="Isy8j8eHQPNsG9e2mkLF-32" target="Isy8j8eHQPNsG9e2mkLF-36">
          <mxGeometry relative="1" as="geometry" />
        </mxCell>
        <mxCell id="Isy8j8eHQPNsG9e2mkLF-55" value="" style="shape=image;verticalLabelPosition=bottom;labelBackgroundColor=default;verticalAlign=top;aspect=fixed;imageAspect=0;image=data:image/png,iVBORw0KGgoAAAANSUhEUgAAARoAAACzCAMAAABhCSMaAAABLFBMVEX///8AAAD/RY4Av7AfGRsAp5b+PIn/6fAEBAT29vZ62dHc3Nzn5+fPycv8/Pzi4uIcHBxPTk3+0+IsLCykpKQ5OTlxcXGqqqnHx8d5y8C8vLzv7+/V1dU3NzcAv7POzs6cnJxiYmIQEBBZWVkfAAC96OJDQ0N8fHxqamodHR0oKCiRkZGIiIj/RpMhGBsAFQoArpsBppmysrL+K4X+pMP9i7X6b6P9S4789Pv+3er8x936ZJz8vdT8nsH9fa3x0d3GK2rHPXPgQX7vQoRNIS12KUCSMli+OW0sGx9bJjpnJDwSGRf/zeD/sMwAFQDjMHkAODHk9vIXJCOR1c0LloUJhHkPbGU+tqgaVEsgEBQaODZGzcMAu7eV494gGRQfAA8IjX4TXFcALCfU9O/JHbQuAAALpElEQVR4nO2cC3vbthWGidhSxIgGpUqWFNEXXWxJ1i2SstbZsluSNenidkvapKuaNt6W//8fBuAAJECRtKhU5B4S35M4Fg2BwMuDcwHkGIaWlpaWlpaWlpaWlpaWlpaWlpaW1lbC9z9HOO3h71PfPi7urMe/S3v0e9UXxXu7qvilkWmr2R1N8atMg/kcNNdP0h77nrUzmuLvyXLKtN3siqb4B/pujSaATLaDE9NuaLIenJh2QlN8mvG1xBQfzXUOghPTLlZDglMeFB/N7PEf0x50MoqPJg/BiSk2GhKccqK4aIpPc+GCqeKhmd2798TA2Y/bTDGtJifBiSkemmJOghNTLDTFP+UgCXYVB03xz2mPNlHFQfM0RyZjxEJzfT/twSar7dEUv0h7rAlrazQkOOVrPW2LZkaCU960JRoWnPKSBnNthyZHlZMnimZ2N5v7eXM0BkUzm83ugkOCU84WE9Vf/vrs2fPnL65nVGFkvsuhzRjGEXrENP/b1y9fPX8RxCeHwYnpCB0yVW5uCKBv/v7ymY/OrPhVHk5WAnSE5vPDQ/qXfD2sfHz06Ob1K9l4ZtdP8kmGWQ2AqbA/RMR8Xr+6dtnkrHLyJBaUqptH37x8weAUv017hKkpEA2xoo+Pbr5+Pps9/i7tAaanYKthK+zmH6//+WUeExquYDRcvTcP3xq0dsolnig08+8LhcIPaY8wNUWgma/fFZbLwuJTbvOaMDCHF+8XBaYfckkmwmoufuRkCoV/vc2j3YSiuf1psSy4uswhmzA0658XHhjC6GHaA01eIXnN+rCgavEhdxlOiNXcvvOhOTj7kDeHE1wo3L5f+MgQnb1Ne7DJKgBNRQ5OEpmzAzPt0SaqTTQfD9c/+cmcUTYHvxzkak0FWM3658JSIbNgaMjfsw85IhOAhlVOKhkQ5ZMnNhtoSOWk2kzhQNaD/CypDTQX75dyGlxYKmTOzn5Ne8SJSUVTmd+S4KRYDXfBHpzLtIeclFQ0c19wWhbOfEZDvuQlvVHRkOAU7IJlPB+y/puFXBKaSmW99pM5C0CTF3cjoZl/vH23UJO9TTAHsKRyZjXzi43KKcBoqD6kPepEJKG5+I9KZgleN8hychGlPDS3b3w2E+RohHK1oNbfk1AtZzQL4Vny6ok5mo+H83d+m4kwmlzsT3A084t/SxazZPVBJJsHaQ98/+JoNoNTlAi0s+wHcPb5moo/OEWTYcq+t6FoKus3i6VSU0YFJ2E5WTcahmYdtnkVqcznNgTNfF2IvZxYlZlxHSESnHxGE1YfqGgyvzlxhC5+3Njw3AbNwS9Zd8RHKH5wAqM5OEh77HvW0X/9ldN2aKg+pT34/erc52eWdxNx9Wu2s75LvwuOoYwfSl36zg/iKOOfD7jc2WYyv6OloNkuantosl1+y2gWMdFkfI/400NPD2Ir235Yax/SNqOlpaWlFUORYSOfMcWsM60imvjBOG3QPof1/yALMQ2i2rSmo2HLe3kCb6nte2hpi6ApkXlWI5o0GYmh+7pM3lIqoeP9Dy5dUash84xA41B4BN+5uFCmpDQaohYYCeqIC2V4Sy7QoEg0bQaihCbigkYDwpxECbVFqNJoXPWZG74yRRDXaFyZox5CXdt9rdFIMh35g2YajSv232ZIKbFGI0upFTbymq1KLOxviIP+2banJBSEJmgG0ncSGqll8K9zq12FosFKq6CecOC3e1Wg1TiWZTmOY7MnjS0qx3JHpFjN+WQ0OK4Om1bYDZzWqtPp1Fcn/hmRjh3HEl7spN6oHg+605UTNne73SQdNdt24E/3oE002JhA/Yi67LXJX7meuOwm0Lh5hYT6J76eyQStVaOCvBZt9bd+bHa1Q6+tal6zakuxL/Z4yp2+16DXOE/EdAKspo7g2gjub/LZ+a2mazhVgMSSZVKAYnVK7S50RKsMxL4cn8tTsvldDKsvGpSgksVKP2ZzAHekTaBF10ng/2PYRLPihUGV3zwMTQOP2bxLMGryT1WxioGYr2hEv8j7Qjb7eQ1bV9AEZk0n35WnbXHArAP4g1DF3j8bFQ3mJRO5/akw2mA0CE26SEyHD5oYkjTcDjzlklgHMPmW1wTQoHIPeVhAXr1GB9Hnl6VuSqhn7n1N+dG0BBnXtYRZzRVYd6kGK4EtqqbUsym4XA0Gxy7BU8+ybGWxjQeDmgsQOW43fEj0/TVoAm9rJIyG7uAxAxhb7p0D0fCHOG7ajumUp8IH9Byp6ynzCivbIa7Davb4omnLaFz3Ui+bGJvlhjCxjtcNNhjYactiTaYCX2hM/K0ko+FVNmL3dUmEWA2d0lRcssd8mh1DXjDjuofKqcGUuob3c9FR3zXRJkej7K6uUFXaiBZ2Xf/cqd8lCQ02bLHs5dwhzNfIe6KGzRdGRe5bTWXElpj3HtFPVWrX5ddkm8DnhqwpoGnsMNtYkq3GGnMyLblF+IKSI2yHx7Vy2I2wwbm7FuIuKPk95xzNRpbk3awMlh250/9byEVD8odTnju0lIwqFM1U7sfkaOrh3rEL3bsWKdD0lVYcjXKUo5a3JuSZxwm5YZJ44QF3ib4DppAFVVIeLGYTR774rWoYgmalvGUAd4s4GMMQ78b7/o08jqZBRw6Ta/pahPoaORphkkOz3C/idCoYjX/tdGFAUU62CrliQmiGLDbwgwP1uYflNTW12TmQ7Zl+qzGtk5MWVT8ADXM+yjt4/HbReIvJsaGj9ilbz0mhmTDfxs4N/Al4iK/xb/HYfDmKmdNuzNakijyVgtGo/Wygofd12tOa0lGCaKY1Xrw1NoraMKtRvSc9yWPywo09LamzgRTfj6an9uNHQ9TqSljcnpJBwwtEFlvrfrPZHk1JQTMR04iyGqJTtR8fGmw4I8SrNKWjxNC4T2Mzowhzw9FWg/tI7COI/nvBbti3x+y3GqvCn52rHrxKzGp4nVeijlRtsduCGvFni8aN5rnN9vK64M3ioSF35xs5x8P2CeuIX0oIDWUyrvPZjNQWYWh828kiFMPMRaGD6t4EgiLUnWim3GKOvQzdgTI/ITdMdwssWpwg2FrAd2XDmz7iBBYPr72rfDHJ23qw7xIPjdODx3UqcXBKiQZvWhBjyKX87ibMapSUj5bHsKcC7wFHgzoy5OoOaNp8RGWpn4TRQK0GlXcJXckxKjivQX5/PQQ0fWYmZe5oFHrcAGKhgapVXbz8o09JoeH3XvGnPZLWQWih0FEyoAoMuMNetPjSlO9kox18DXM1vmyryUuSJNFgOjCw1uZdW1lEV14v2N1Shq2V9gYazLZZdkKDlJ0hAzb9kopQXrjBNdfdRG6AMkmFKD7l+9nw8oSj4aPHsIEIUTgWmgkMr++OhtexyaPBbHNYDY1hvkZx10Oe+E5FryWxScnPustjxDcCY6Fp8mTPhn6wOAtKw2qo42Nys5uwvWGoKqCTvkh7xb6lOBTh2QjuAM3YbvicgzjmHVsNGG8KVoMhM6OXhLsJ3wCl7frD6ZAfxsnnRw1RPh1P6/VJV0wndvA2a6JG6E/q9ekAeUreajCccXtbtqHZsLBsj1TVzT44PqkBQu1a7AWF+UGfW0Kxtd5GiUcoPhpxJMYzUF6yKGjoz52JVLCzLxXH62TCDck7jG2CKW2Dxj1KIagHyLsNdGQbtaR2+Ur+fSkRZuGA0LzynQSAG+6zfAx5I0YD5fMfQ/6Mhe2sxMdsZTT0RwoazJeiV3mbA3EX6OfKhuW6fzT80aknF2JJs+OBwA+RsELLOJH28K78u7mrseQYRjTEQHHubujwW/t2k0dwtcNfYownUj+VKR1Gi327bzRmvUmlniLYcLFJp4/xin1bdzMLZ0JlMZ99Mh2wDYLRytz40JXZHjE6p42mBZ+1atN+HN+tV+q7WnC3snfFsDp9er5SGgzbYJiYvLO+SurTWTsLm6azsVXu/dAJ/2EcRd1ES0tLS0tLS0tLS0tLS0tLS0tLS0tLS0tLSys9/Q/50xGt1dgD+gAAAABJRU5ErkJggg==;" vertex="1" parent="Isy8j8eHQPNsG9e2mkLF-10">
          <mxGeometry x="300" y="352" width="85.38" height="54.2" as="geometry" />
        </mxCell>
        <mxCell id="Isy8j8eHQPNsG9e2mkLF-40" value="Empresa" style="shape=actor;whiteSpace=wrap;html=1;" vertex="1" parent="1">
          <mxGeometry x="3800" y="530" width="110" height="120" as="geometry" />
        </mxCell>
        <mxCell id="Isy8j8eHQPNsG9e2mkLF-41" style="edgeStyle=orthogonalEdgeStyle;rounded=0;orthogonalLoop=1;jettySize=auto;html=1;exitX=0;exitY=0;exitDx=239.99999999999997;exitDy=85;exitPerimeter=0;entryX=0.5;entryY=1;entryDx=0;entryDy=0;" edge="1" parent="1" source="Isy8j8eHQPNsG9e2mkLF-36" target="Isy8j8eHQPNsG9e2mkLF-40">
          <mxGeometry relative="1" as="geometry" />
        </mxCell>
        <mxCell id="Isy8j8eHQPNsG9e2mkLF-43" style="edgeStyle=orthogonalEdgeStyle;rounded=0;orthogonalLoop=1;jettySize=auto;html=1;exitX=1;exitY=0.5;exitDx=0;exitDy=0;entryX=0;entryY=0.5;entryDx=0;entryDy=0;" edge="1" parent="1" source="XA0mJjuyiel9CvAW2BMo-3" target="XA0mJjuyiel9CvAW2BMo-4">
          <mxGeometry relative="1" as="geometry" />
        </mxCell>
        <mxCell id="Isy8j8eHQPNsG9e2mkLF-44" value="Transcription" style="edgeLabel;html=1;align=center;verticalAlign=middle;resizable=0;points=[];" connectable="0" vertex="1" parent="Isy8j8eHQPNsG9e2mkLF-43">
          <mxGeometry x="0.1645" y="2" relative="1" as="geometry">
            <mxPoint x="1" as="offset" />
          </mxGeometry>
        </mxCell>
        <mxCell id="Isy8j8eHQPNsG9e2mkLF-54" value="Upload" style="edgeStyle=orthogonalEdgeStyle;rounded=0;orthogonalLoop=1;jettySize=auto;html=1;exitX=1;exitY=0.5;exitDx=0;exitDy=0;entryX=0;entryY=0;entryDx=0;entryDy=65;entryPerimeter=0;" edge="1" parent="1" source="Isy8j8eHQPNsG9e2mkLF-50" target="Isy8j8eHQPNsG9e2mkLF-32">
          <mxGeometry relative="1" as="geometry" />
        </mxCell>
        <mxCell id="Isy8j8eHQPNsG9e2mkLF-61" value="Upload" style="edgeStyle=orthogonalEdgeStyle;rounded=0;orthogonalLoop=1;jettySize=auto;html=1;exitX=0.5;exitY=0.5;exitDx=0;exitDy=0;exitPerimeter=0;entryX=0.5;entryY=1;entryDx=0;entryDy=0;entryPerimeter=0;" edge="1" parent="1" source="Isy8j8eHQPNsG9e2mkLF-7" target="Isy8j8eHQPNsG9e2mkLF-49">
          <mxGeometry relative="1" as="geometry" />
        </mxCell>
      </root>
    </mxGraphModel>
  </diagram>
</mxfile>
